<svg xmlns="http://www.w3.org/2000/svg" viewBox="0 0 1280 320" width="1280" height="320">
  <defs>
    <linearGradient id="bg" x1="0%" y1="0%" x2="100%" y2="100%">
      <stop offset="0%" stop-color="#0a0a0a"/>
      <stop offset="50%" stop-color="#111827"/>
      <stop offset="100%" stop-color="#0a0a0a"/>
    </linearGradient>
    <linearGradient id="accent" x1="0%" y1="0%" x2="100%" y2="0%">
      <stop offset="0%" stop-color="#6366f1"/>
      <stop offset="50%" stop-color="#8b5cf6"/>
      <stop offset="100%" stop-color="#a78bfa"/>
    </linearGradient>
    <linearGradient id="textGrad" x1="0%" y1="0%" x2="100%" y2="0%">
      <stop offset="0%" stop-color="#e0e7ff"/>
      <stop offset="100%" stop-color="#c7d2fe"/>
    </linearGradient>
  </defs>

  <rect width="1280" height="320" fill="url(#bg)"/>

  <!-- Subtle grid -->
  <g opacity="0.04" stroke="#8b5cf6" stroke-width="0.5" fill="none">
    <line x1="0" y1="0" x2="0" y2="320"/><line x1="40" y1="0" x2="40" y2="320"/>
    <line x1="80" y1="0" x2="80" y2="320"/><line x1="120" y1="0" x2="120" y2="320"/>
    <line x1="160" y1="0" x2="160" y2="320"/><line x1="200" y1="0" x2="200" y2="320"/>
    <line x1="240" y1="0" x2="240" y2="320"/><line x1="280" y1="0" x2="280" y2="320"/>
    <line x1="320" y1="0" x2="320" y2="320"/><line x1="360" y1="0" x2="360" y2="320"/>
    <line x1="400" y1="0" x2="400" y2="320"/><line x1="440" y1="0" x2="440" y2="320"/>
    <line x1="480" y1="0" x2="480" y2="320"/><line x1="520" y1="0" x2="520" y2="320"/>
    <line x1="560" y1="0" x2="560" y2="320"/><line x1="600" y1="0" x2="600" y2="320"/>
    <line x1="640" y1="0" x2="640" y2="320"/><line x1="680" y1="0" x2="680" y2="320"/>
    <line x1="720" y1="0" x2="720" y2="320"/><line x1="760" y1="0" x2="760" y2="320"/>
    <line x1="800" y1="0" x2="800" y2="320"/><line x1="840" y1="0" x2="840" y2="320"/>
    <line x1="880" y1="0" x2="880" y2="320"/><line x1="920" y1="0" x2="920" y2="320"/>
    <line x1="960" y1="0" x2="960" y2="320"/><line x1="1000" y1="0" x2="1000" y2="320"/>
    <line x1="1040" y1="0" x2="1040" y2="320"/><line x1="1080" y1="0" x2="1080" y2="320"/>
    <line x1="1120" y1="0" x2="1120" y2="320"/><line x1="1160" y1="0" x2="1160" y2="320"/>
    <line x1="1200" y1="0" x2="1200" y2="320"/><line x1="1240" y1="0" x2="1240" y2="320"/>
    <line x1="1280" y1="0" x2="1280" y2="320"/>
    <line x1="0" y1="0" x2="1280" y2="0"/><line x1="0" y1="40" x2="1280" y2="40"/>
    <line x1="0" y1="80" x2="1280" y2="80"/><line x1="0" y1="120" x2="1280" y2="120"/>
    <line x1="0" y1="160" x2="1280" y2="160"/><line x1="0" y1="200" x2="1280" y2="200"/>
    <line x1="0" y1="240" x2="1280" y2="240"/><line x1="0" y1="280" x2="1280" y2="280"/>
    <line x1="0" y1="320" x2="1280" y2="320"/>
  </g>

  <!-- Ambient glow (no filter needed — just large soft circles) -->
  <circle cx="200" cy="160" r="180" fill="#6366f1" opacity="0.03"/>
  <circle cx="1080" cy="160" r="180" fill="#8b5cf6" opacity="0.03"/>

  <!-- Forge icon -->
  <g transform="translate(490, 80)">
    <path d="M0 90 L10 70 L50 70 L60 90 Z" fill="url(#accent)" opacity="0.9"/>
    <rect x="15" y="50" width="30" height="20" rx="2" fill="url(#accent)" opacity="0.8"/>
    <rect x="25" y="10" width="10" height="40" rx="2" fill="#a78bfa" opacity="0.7"/>
    <rect x="15" y="0" width="30" height="14" rx="3" fill="url(#accent)" opacity="0.9"/>
    <circle cx="8" cy="45" r="2" fill="#c4b5fd" opacity="0.6"/>
    <circle cx="52" cy="40" r="1.5" fill="#c4b5fd" opacity="0.5"/>
    <circle cx="5" cy="35" r="1" fill="#e0e7ff" opacity="0.4"/>
    <circle cx="58" cy="30" r="1.5" fill="#e0e7ff" opacity="0.5"/>
  </g>

  <!-- Title -->
  <text x="570" y="130" font-family="system-ui, -apple-system, 'Segoe UI', sans-serif" font-size="56" font-weight="700" fill="url(#textGrad)" letter-spacing="-1">Forge Space</text>

  <!-- Tagline -->
  <text x="640" y="172" font-family="system-ui, -apple-system, 'Segoe UI', sans-serif" font-size="18" fill="#94a3b8" text-anchor="middle" letter-spacing="1">Open-Source AI Developer Tools</text>

  <!-- Accent line -->
  <rect x="540" y="188" width="200" height="1.5" rx="1" fill="url(#accent)" opacity="0.5"/>

  <!-- Tech pills -->
  <g font-family="ui-monospace, 'SF Mono', monospace" font-size="11" fill="#a5b4fc">
    <g transform="translate(370, 220)">
      <rect x="0" y="0" width="78" height="24" rx="12" fill="#1e1b4b" opacity="0.6"/>
      <text x="39" y="16" text-anchor="middle">TypeScript</text>
    </g>
    <g transform="translate(458, 220)">
      <rect x="0" y="0" width="55" height="24" rx="12" fill="#1e1b4b" opacity="0.6"/>
      <text x="27.5" y="16" text-anchor="middle">React</text>
    </g>
    <g transform="translate(523, 220)">
      <rect x="0" y="0" width="55" height="24" rx="12" fill="#1e1b4b" opacity="0.6"/>
      <text x="27.5" y="16" text-anchor="middle">Next.js</text>
    </g>
    <g transform="translate(588, 220)">
      <rect x="0" y="0" width="42" height="24" rx="12" fill="#1e1b4b" opacity="0.6"/>
      <text x="21" y="16" text-anchor="middle">MCP</text>
    </g>
    <g transform="translate(640, 220)">
      <rect x="0" y="0" width="72" height="24" rx="12" fill="#1e1b4b" opacity="0.6"/>
      <text x="36" y="16" text-anchor="middle">Supabase</text>
    </g>
    <g transform="translate(722, 220)">
      <rect x="0" y="0" width="80" height="24" rx="12" fill="#1e1b4b" opacity="0.6"/>
      <text x="40" y="16" text-anchor="middle">Cloudflare</text>
    </g>
    <g transform="translate(812, 220)">
      <rect x="0" y="0" width="55" height="24" rx="12" fill="#1e1b4b" opacity="0.6"/>
      <text x="27.5" y="16" text-anchor="middle">Docker</text>
    </g>
  </g>

  <!-- Bottom fade -->
  <rect x="0" y="290" width="1280" height="30" fill="url(#bg)" opacity="0.5"/>
</svg>
